<mxfile host="app.diagrams.net" agent="Mozilla/5.0 (Windows NT 10.0; Win64; x64) AppleWebKit/537.36 (KHTML, like Gecko) Chrome/134.0.0.0 Safari/537.36" version="26.2.13">
  <diagram name="Tao_van_choi_moi" id="Tao_van_choi_moi">
    <mxGraphModel dx="1238" dy="535" grid="1" gridSize="10" guides="1" tooltips="1" connect="1" arrows="1" fold="1" page="1" pageScale="1" pageWidth="827" pageHeight="1169" math="0" shadow="0">
      <root>
        <mxCell id="0" />
        <mxCell id="1" parent="0" />
        <mxCell id="2" value="" style="swimlane;horizontal=0;" parent="1" vertex="1">
          <mxGeometry x="174" y="50" width="480" height="400" as="geometry" />
        </mxCell>
        <mxCell id="3" value="Người chơi" style="swimlane;horizontal=1;" parent="2" vertex="1">
          <mxGeometry y="30" width="240" height="370" as="geometry" />
        </mxCell>
        <mxCell id="bVVMIQz_1_GRzr4pBegv-6" value="Nhấn nút &quot;Bắt đầu&quot;" style="rounded=1;whiteSpace=wrap;html=1;" parent="3" vertex="1">
          <mxGeometry x="60" y="40" width="120" height="60" as="geometry" />
        </mxCell>
        <mxCell id="4" value="Hệ thống" style="swimlane;horizontal=1;" parent="2" vertex="1">
          <mxGeometry x="240" y="30" width="240" height="370" as="geometry" />
        </mxCell>
        <mxCell id="bVVMIQz_1_GRzr4pBegv-8" value="Khởi tạo bàn chơi &amp;amp; danh sách người chơi" style="rounded=0;whiteSpace=wrap;html=1;" parent="4" vertex="1">
          <mxGeometry x="60" y="40" width="120" height="60" as="geometry" />
        </mxCell>
        <mxCell id="bVVMIQz_1_GRzr4pBegv-10" value="Thiết lập vị trí ban đầu, tiền xuất phát" style="rounded=0;whiteSpace=wrap;html=1;" parent="4" vertex="1">
          <mxGeometry x="60" y="120" width="120" height="60" as="geometry" />
        </mxCell>
        <mxCell id="bVVMIQz_1_GRzr4pBegv-9" value="" style="endArrow=classic;html=1;rounded=0;exitX=0.5;exitY=1;exitDx=0;exitDy=0;entryX=0.5;entryY=0;entryDx=0;entryDy=0;" parent="4" source="bVVMIQz_1_GRzr4pBegv-8" target="bVVMIQz_1_GRzr4pBegv-10" edge="1">
          <mxGeometry width="50" height="50" relative="1" as="geometry">
            <mxPoint x="110" y="230" as="sourcePoint" />
            <mxPoint x="120" y="150" as="targetPoint" />
          </mxGeometry>
        </mxCell>
        <mxCell id="bVVMIQz_1_GRzr4pBegv-12" value="" style="endArrow=classic;html=1;rounded=0;entryX=0.5;entryY=0;entryDx=0;entryDy=0;exitX=0.5;exitY=1;exitDx=0;exitDy=0;" parent="4" target="bVVMIQz_1_GRzr4pBegv-14" edge="1" source="bVVMIQz_1_GRzr4pBegv-10">
          <mxGeometry width="50" height="50" relative="1" as="geometry">
            <mxPoint x="120" y="190" as="sourcePoint" />
            <mxPoint x="119.5" y="220" as="targetPoint" />
          </mxGeometry>
        </mxCell>
        <mxCell id="bVVMIQz_1_GRzr4pBegv-14" value="Xác định thứ tự chơi" style="rounded=0;whiteSpace=wrap;html=1;" parent="4" vertex="1">
          <mxGeometry x="60" y="200" width="120" height="60" as="geometry" />
        </mxCell>
        <mxCell id="bVVMIQz_1_GRzr4pBegv-16" value="Hiển thị giao diện chơi" style="rounded=0;whiteSpace=wrap;html=1;" parent="4" vertex="1">
          <mxGeometry x="60" y="280" width="120" height="60" as="geometry" />
        </mxCell>
        <mxCell id="bVVMIQz_1_GRzr4pBegv-17" value="" style="endArrow=classic;html=1;rounded=0;exitX=0.5;exitY=1;exitDx=0;exitDy=0;" parent="4" source="bVVMIQz_1_GRzr4pBegv-14" target="bVVMIQz_1_GRzr4pBegv-16" edge="1">
          <mxGeometry width="50" height="50" relative="1" as="geometry">
            <mxPoint x="110" y="230" as="sourcePoint" />
            <mxPoint x="160" y="180" as="targetPoint" />
          </mxGeometry>
        </mxCell>
        <mxCell id="bVVMIQz_1_GRzr4pBegv-7" value="" style="endArrow=classic;html=1;rounded=0;exitX=1;exitY=0.5;exitDx=0;exitDy=0;entryX=0;entryY=0.5;entryDx=0;entryDy=0;" parent="2" source="bVVMIQz_1_GRzr4pBegv-6" target="bVVMIQz_1_GRzr4pBegv-8" edge="1">
          <mxGeometry width="50" height="50" relative="1" as="geometry">
            <mxPoint x="350" y="260" as="sourcePoint" />
            <mxPoint x="300" y="100" as="targetPoint" />
          </mxGeometry>
        </mxCell>
        <mxCell id="r2M9D7wKV0BXNsKFfsIn-4" value="Tạo ván chơi mới" style="text;html=1;align=center;verticalAlign=middle;resizable=0;points=[];autosize=1;strokeColor=none;fillColor=none;" parent="2" vertex="1">
          <mxGeometry x="180" width="120" height="30" as="geometry" />
        </mxCell>
      </root>
    </mxGraphModel>
  </diagram>
</mxfile>
